<?xml version="1.0" standalone="no"?>
<!DOCTYPE svg PUBLIC "-//W3C//DTD SVG 20010904//EN"
 "http://www.w3.org/TR/2001/REC-SVG-20010904/DTD/svg10.dtd">
<svg version="1.0" xmlns="http://www.w3.org/2000/svg"
 width="300.000000pt" height="63.000000pt" viewBox="0 0 300.000000 63.000000"
 preserveAspectRatio="xMidYMid meet">
<metadata>
Created by potrace 1.10, written by Peter Selinger 2001-2011
</metadata>
<g transform="translate(0.000000,63.000000) scale(0.100000,-0.100000)"
fill="#000000" stroke="none">
<path d="M2072 548 c-19 -19 -14 -56 9 -68 16 -9 26 -8 45 5 29 19 30 36 6 58
-22 20 -43 22 -60 5z"/>
<path d="M62 538 c-13 -13 -18 -371 -6 -402 5 -14 27 -16 139 -16 79 0 136 4
140 10 3 6 3 19 0 30 -6 18 -15 20 -106 20 l-99 0 0 173 c0 177 -4 197 -40
197 -9 0 -21 -5 -28 -12z"/>
<path d="M1413 544 c-10 -4 -13 -56 -13 -209 0 -192 1 -205 19 -215 11 -5 27
-7 35 -4 14 6 16 32 14 218 -3 203 -4 211 -23 213 -11 1 -26 -1 -32 -3z"/>
<path d="M1572 538 c-9 -9 -12 -66 -12 -210 0 -189 1 -198 21 -208 15 -9 24
-8 35 1 12 10 15 37 14 138 -1 69 -1 131 -1 136 1 6 25 -37 55 -95 55 -107 72
-127 98 -117 8 3 39 53 68 111 30 58 57 106 60 106 3 0 4 -60 2 -133 -2 -109
0 -136 12 -146 11 -9 20 -10 35 -1 20 10 21 19 21 203 0 144 -3 198 -13 211
-28 38 -50 15 -122 -126 -38 -76 -72 -138 -75 -138 -3 0 -37 62 -76 138 -72
138 -92 160 -122 130z m56 -102 c3 -20 0 -27 -10 -24 -7 3 -14 17 -16 32 -3
20 0 27 10 24 7 -3 14 -17 16 -32z m312 -2 c0 -26 -17 -33 -26 -9 -8 20 3 48
16 40 5 -3 10 -17 10 -31z"/>
<path d="M2789 529 c-7 -15 -9 -46 -4 -92 l7 -70 -32 26 c-55 47 -134 33 -177
-32 -32 -47 -32 -134 0 -182 47 -71 133 -86 184 -31 22 24 23 24 23 4 0 -27
29 -44 53 -31 15 9 17 31 17 207 0 141 -3 201 -12 210 -19 19 -46 14 -59 -9z
m-25 -188 c22 -24 26 -99 7 -134 -16 -31 -68 -45 -99 -28 -43 23 -52 122 -15
163 22 25 84 24 107 -1z"/>
<path d="M444 406 c-69 -30 -101 -153 -58 -226 26 -44 94 -74 148 -67 58 8 94
26 102 50 10 33 -10 41 -56 23 -22 -9 -52 -16 -66 -16 -29 0 -74 41 -74 67 0
16 10 18 97 18 l98 0 3 35 c3 41 -29 98 -68 117 -32 16 -87 16 -126 -1z m108
-53 c9 -10 19 -28 22 -40 7 -22 5 -23 -63 -23 -79 0 -91 13 -49 57 26 27 69
30 90 6z"/>
<path d="M760 407 c-93 -47 -93 -217 0 -264 49 -25 118 -12 147 26 10 13 12
10 13 -22 0 -27 -7 -45 -25 -62 -28 -29 -54 -31 -125 -8 -43 14 -53 14 -60 3
-13 -21 5 -46 41 -59 44 -15 133 -14 174 3 58 25 66 54 63 233 l-3 158 -30 0
c-23 0 -30 -5 -35 -25 -5 -21 -8 -23 -16 -9 -22 38 -95 51 -144 26z m139 -73
c12 -15 21 -41 21 -59 0 -50 -33 -85 -80 -85 -47 0 -80 35 -80 85 0 50 33 85
80 85 30 0 43 -6 59 -26z"/>
<path d="M1108 403 c-29 -11 -38 -21 -38 -39 0 -29 13 -30 81 -8 45 15 51 15
74 0 16 -10 25 -26 25 -41 0 -24 -3 -25 -54 -25 -94 0 -136 -25 -136 -84 0
-33 43 -83 79 -91 32 -7 79 9 97 33 13 16 13 16 14 0 0 -24 30 -39 52 -27 16
8 18 24 18 114 0 116 -10 149 -51 171 -36 18 -114 17 -161 -3z m142 -168 c0
-54 -86 -90 -110 -46 -20 38 -3 53 70 64 14 3 28 5 33 6 4 0 7 -10 7 -24z"/>
<path d="M2070 401 c-5 -11 -10 -74 -10 -140 0 -95 3 -123 16 -135 18 -19 20
-19 45 -6 17 10 19 22 19 140 0 70 -3 135 -6 144 -9 22 -51 20 -64 -3z"/>
<path d="M2227 414 c-4 -4 -7 -69 -7 -145 0 -126 2 -139 19 -149 42 -22 51 -4
51 95 0 78 3 96 21 119 26 33 83 37 99 7 5 -11 10 -63 10 -115 0 -84 2 -97 19
-106 25 -13 27 -13 45 6 30 30 17 237 -17 271 -34 35 -146 24 -163 -15 -5 -14
-8 -12 -13 8 -7 25 -48 40 -64 24z"/>
</g>
</svg>
